<?xml version="1.0" encoding="UTF-8"?>
<svg id="Layer_1" xmlns="http://www.w3.org/2000/svg" version="1.1" xmlns:xlink="http://www.w3.org/1999/xlink" viewBox="0 0 841.89 595.28">
  <!-- Generator: Adobe Illustrator 29.6.1, SVG Export Plug-In . SVG Version: 2.1.1 Build 9)  -->
  <defs>
    <style>
      .st0 {
        fill: #1fffa9;
      }

      .st1 {
        fill: url(#linear-gradient1);
      }

      .st2 {
        fill: none;
        stroke: url(#linear-gradient);
        stroke-miterlimit: 10;
        stroke-width: 1.1px;
      }
    </style>
    <linearGradient id="linear-gradient" x1="355.63" y1="357.94" x2="518.94" y2="241.19" gradientUnits="userSpaceOnUse">
      <stop offset="0" stop-color="#1fffa9"/>
      <stop offset=".88" stop-color="#108055"/>
    </linearGradient>
    <linearGradient id="linear-gradient1" x1="3500.82" y1="-1309.22" x2="3681.69" y2="-1188.6" gradientTransform="translate(-1413.74 3040.28) rotate(-35.56) scale(.86 .93)" gradientUnits="userSpaceOnUse">
      <stop offset=".2" stop-color="#1fffa9"/>
      <stop offset="1" stop-color="#108055"/>
    </linearGradient>
  </defs>
  <path class="st2" d="M522.71,252.04c-2.39-.49-4.9-.05-6.95,1.42l-56.55,40.43c-3.4,2.43-8.3,1.44-10.9-2.21-1.33-1.86-1.83-4.11-1.55-6.29.32-2.48,1.74-4.27,2.55-6.52,1.07-2.96.66-6.37-1.28-9.08-1.3-1.82-3.08-3.09-5.01-3.75-5.64-1.93-9.84,2.74-13.81,5.58-4.1,2.93-10.04,1.74-13.18-2.66-1.57-2.2-2.16-4.8-1.85-7.22.31-2.42,1.54-4.65,3.59-6.12l45.77-32.73c2.44-3.19,2.53-7.93-.08-11.57-1.57-2.2-3.84-3.6-6.23-4.08-2.39-.49-4.9-.05-6.95,1.42l-87.47,62.54c-4.1,2.93-4.89,8.94-1.74,13.34,2.06,2.88,5.72,4.79,9.02,3.72,2.39-.78,4.23-2.68,6.84-2.94,3.39-.34,6.91,1.3,9.01,4.23,1.57,2.2,2.16,4.8,1.85,7.22-.31,2.42-1.54,4.65-3.59,6.12l-36.81,26.78c-4.1,2.93-4.89,8.94-1.74,13.34,1.57,2.2,3.84,3.6,6.23,4.08,2.39.49,4.9.05,6.95-1.42l60.21-43.05c3.39-2.43,8.3-1.44,10.9,2.2,1.3,1.82,1.79,3.97,1.53,5.97-.26,2-1.27,3.84-2.97,5.06l-.2.14c-4.1,2.93-4.89,8.94-1.74,13.34,2.06,2.88,5.72,4.79,9.02,3.72,2.39-.78,4.23-2.68,6.84-2.94,3.39-.34,6.91,1.3,9.01,4.23,1.57,2.2,2.17,4.8,1.85,7.22-.31,2.42-1.54,4.65-3.59,6.12l-36.81,26.78c-4.1,2.93-4.89,8.94-1.74,13.34,1.57,2.2,3.84,3.6,6.23,4.08,2.39.49,4.9.05,6.95-1.42l87.47-62.54c4.1-2.93,4.89-8.94,1.74-13.34-1.3-1.82-3.08-3.09-5.01-3.75-5.64-1.93-9.84,2.74-13.81,5.58-4.1,2.93-10.04,1.74-13.18-2.66-1.57-2.2-2.16-4.8-1.85-7.22.31-2.42,1.54-4.65,3.59-6.12l45.77-32.73c2.44-3.19,2.53-7.93-.08-11.57-1.57-2.2-3.84-3.6-6.23-4.08Z"/>
  <path class="st0" d="M296.72,353.96c0,4.22-3.42,7.65-7.65,7.65s-7.65-3.42-7.65-7.65,3.42-7.65,7.65-7.65,7.65,3.42,7.65,7.65Z"/>
  <path class="st0" d="M517.92,235.86c0,4.22-3.42,7.65-7.65,7.65s-7.65-3.42-7.65-7.65,3.42-7.65,7.65-7.65,7.65,3.42,7.65,7.65Z"/>
  <path class="st1" d="M484.91,248.19c-2.39-.49-4.9-.05-6.95,1.42l-56.55,40.43c-3.4,2.43-8.3,1.44-10.9-2.21-1.33-1.86-1.83-4.11-1.55-6.29.32-2.48,1.74-4.27,2.55-6.52,1.07-2.96.66-6.37-1.28-9.08-1.3-1.82-3.08-3.09-5.01-3.75-5.64-1.93-9.84,2.74-13.81,5.58-4.1,2.93-10.04,1.74-13.18-2.66-1.57-2.2-2.16-4.8-1.85-7.22.31-2.42,1.54-4.65,3.59-6.12l45.77-32.73c2.44-3.19,2.53-7.93-.08-11.57-1.57-2.2-3.84-3.6-6.23-4.08-2.39-.49-4.9-.05-6.95,1.42l-87.47,62.54c-4.1,2.93-4.89,8.94-1.74,13.34,2.06,2.88,5.72,4.79,9.02,3.72,2.39-.78,4.23-2.68,6.84-2.94,3.39-.34,6.91,1.3,9.01,4.23,1.57,2.2,2.17,4.8,1.85,7.22-.31,2.42-1.54,4.65-3.59,6.12l-36.81,26.78c-4.1,2.93-4.89,8.94-1.74,13.34,1.57,2.2,3.84,3.6,6.23,4.08,2.39.49,4.9.05,6.95-1.42l60.21-43.05c3.39-2.43,8.3-1.44,10.9,2.2,1.3,1.82,1.79,3.97,1.53,5.97-.26,2-1.27,3.84-2.97,5.06l-.2.14c-4.1,2.93-4.89,8.94-1.74,13.34,2.06,2.88,5.72,4.79,9.02,3.72,2.39-.78,4.23-2.68,6.84-2.94,3.39-.34,6.91,1.3,9.01,4.23,1.57,2.2,2.17,4.8,1.85,7.22-.31,2.42-1.54,4.65-3.59,6.12l-36.81,26.78c-4.1,2.93-4.89,8.94-1.74,13.34,1.57,2.2,3.84,3.6,6.23,4.08,2.39.49,4.9.05,6.95-1.42l87.47-62.54c4.1-2.93,4.89-8.94,1.74-13.34-1.3-1.82-3.08-3.09-5.01-3.75-5.64-1.93-9.84,2.74-13.81,5.58-4.1,2.93-10.04,1.74-13.18-2.66-1.57-2.2-2.16-4.8-1.85-7.22.31-2.42,1.54-4.65,3.59-6.12l45.77-32.73c2.44-3.19,2.53-7.93-.08-11.57-1.57-2.2-3.84-3.6-6.23-4.08Z"/>
</svg>